<svg width="279" height="313" viewBox="0 0 279 313" fill="none" xmlns="http://www.w3.org/2000/svg">
<rect x="32.2232" y="37" width="206" height="230" fill="white"/>
<rect x="32.2232" y="37" width="206" height="230" fill="white"/>
<path d="M278.223 0L252.136 282.567L139.11 313L26.082 282.567L0 0H278.223ZM225.656 57.4556H139.008H50.8256L55.0429 91.5783H139.008H143.725L139.008 93.5414L58.1117 127.234L60.7945 160.588L139.008 160.842L180.928 160.975L178.245 205.448L139.007 216.495V216.46L138.686 216.549L100.793 206.983L98.4931 179.377H98.3675H63.2195H63.0958L67.6965 232.671L139.009 253.759V253.721L139.137 253.759L210.067 233.055L219.268 127.234H139.009H138.811L139.009 127.148L222.208 91.5783L225.656 57.4556Z" fill="url(#paint0_linear_0_36)"/>
<path d="M278.223 0L252.136 282.567L139.11 313L26.082 282.567L0 0H278.223ZM225.656 57.4556H139.008H50.8256L55.0429 91.5783H139.008H143.725L139.008 93.5414L58.1117 127.234L60.7945 160.588L139.008 160.842L180.928 160.975L178.245 205.448L139.007 216.495V216.46L138.686 216.549L100.793 206.983L98.4931 179.377H98.3675H63.2195H63.0958L67.6965 232.671L139.009 253.759V253.721L139.137 253.759L210.067 233.055L219.268 127.234H139.009H138.811L139.009 127.148L222.208 91.5783L225.656 57.4556Z" fill="url(#paint1_linear_0_36)"/>
<defs>
<linearGradient id="paint0_linear_0_36" x1="139.112" y1="0" x2="139.112" y2="313" gradientUnits="userSpaceOnUse">
<stop stop-color="#1A6DFF"/>
<stop offset="1" stop-color="#C822FF"/>
</linearGradient>
<linearGradient id="paint1_linear_0_36" x1="139.112" y1="0" x2="139.112" y2="313" gradientUnits="userSpaceOnUse">
<stop stop-color="#1A6DFF"/>
<stop offset="1" stop-color="#C822FF"/>
</linearGradient>
</defs>
</svg>
