<svg width="210" height="314" viewBox="0 0 210 314" fill="none" xmlns="http://www.w3.org/2000/svg">
<path fill-rule="evenodd" clip-rule="evenodd" d="M104.667 157C104.667 128.098 128.098 104.667 157 104.667C185.902 104.667 209.333 128.098 209.333 157C209.333 185.902 185.902 209.333 157 209.333C128.098 209.333 104.667 185.902 104.667 157Z" fill="#1ABCFE"/>
<path fill-rule="evenodd" clip-rule="evenodd" d="M0 261.667C0 232.764 23.4304 209.333 52.3333 209.333H104.667V261.667C104.667 290.569 81.2357 314 52.3333 314C23.4304 314 0 290.569 0 261.667Z" fill="#0ACF83"/>
<path fill-rule="evenodd" clip-rule="evenodd" d="M104.667 0V104.667H157C185.902 104.667 209.333 81.2357 209.333 52.3333C209.333 23.4304 185.902 0 157 0H104.667Z" fill="#FF7262"/>
<path fill-rule="evenodd" clip-rule="evenodd" d="M0 52.3333C0 81.2357 23.4304 104.667 52.3333 104.667H104.667V0H52.3333C23.4304 0 0 23.4304 0 52.3333Z" fill="#F24E1E"/>
<path fill-rule="evenodd" clip-rule="evenodd" d="M0 157C0 185.902 23.4304 209.333 52.3333 209.333H104.667V104.667H52.3333C23.4304 104.667 0 128.098 0 157Z" fill="#A259FF"/>
</svg>
