<svg width="229" height="314" viewBox="0 0 229 314" fill="none" xmlns="http://www.w3.org/2000/svg">
<mask id="mask0_0_12" style="mask-type:luminance" maskUnits="userSpaceOnUse" x="0" y="0" width="229" height="314">
<path d="M198.927 70.2917C198.213 66.3667 194.645 63.8689 190.72 64.4042C189.292 64.5826 187.865 65.2962 186.795 66.3667L149.686 103.476L120.605 47.9905C118.821 44.4223 114.539 43.1734 110.971 44.9575C109.722 45.6712 108.651 46.7416 107.938 47.9905L92.0593 78.3201L52.0956 3.74493C50.3115 0.355146 45.8512 -1.07213 42.4615 0.890377C40.499 1.96083 39.0717 3.92334 38.7149 6.06426L0 253.34L103.299 311.323C109.722 314.891 117.75 314.891 124.173 311.323L228.364 253.34L198.927 70.2917Z" fill="white"/>
</mask>
<g mask="url(#mask0_0_12)">
<path d="M2.28882e-05 253.34L38.7149 6.06423C39.2501 2.13922 42.9967 -0.536927 46.9217 0.176711C49.0626 0.53353 51.0251 1.9608 52.0956 3.92331L92.0593 78.4985L107.938 48.1689C109.722 44.6007 114.004 43.3518 117.572 45.1359C118.821 45.8496 119.891 46.92 120.605 48.1689L228.364 253.34H2.28882e-05Z" fill="#FFA000"/>
<path opacity="0.12" d="M132.023 1.78238L-57.091 -14.2745V328.272L7.62939e-06 253.34L132.023 1.78238Z" fill="url(#paint0_linear_0_12)"/>
<path d="M133.629 156.999L92.0593 78.3201L2.28882e-05 253.34L133.629 156.999Z" fill="#F57C00"/>
<path opacity="0.2" d="M-57.091 -14.2745H285.455V328.272H-57.091V-14.2745Z" fill="url(#paint1_linear_0_12)"/>
<path d="M228.364 253.34L198.748 70.1132C198.035 66.1882 194.466 63.6905 190.541 64.2257C189.114 64.4041 187.687 65.1178 186.616 66.1882L2.28882e-05 253.34L103.299 311.323C109.722 314.891 117.75 314.891 124.173 311.323L228.364 253.34Z" fill="#FFCA28"/>
<path d="M198.927 70.2917C198.213 66.3667 194.645 63.8689 190.72 64.4042C189.293 64.5826 187.865 65.2962 186.795 66.3667L149.686 103.476L120.605 47.9905C118.821 44.4223 114.539 43.1734 110.971 44.9575C109.722 45.6712 108.651 46.7416 107.938 47.9905L92.0594 78.3201L52.0956 3.74493C50.3116 0.355146 45.8513 -1.07213 42.4615 0.890377C40.499 1.96083 39.0718 3.92334 38.7149 6.06426L7.56681e-05 253.34H-0.178345L7.56681e-05 253.518L1.07053 254.053L149.686 105.26L186.795 68.1508C189.649 65.2962 194.11 65.2962 196.964 68.1508C198.035 69.2212 198.748 70.4701 198.927 72.0758L228.186 253.518L228.543 253.34L198.927 70.2917ZM0.356889 252.983L38.7149 7.84835C39.2502 3.92334 42.9968 1.24719 46.9218 1.96083C49.0627 2.31765 51.0252 3.74492 52.0956 5.70743L92.0594 80.2826L107.938 49.953C109.722 46.3848 114.004 45.1359 117.572 46.92C118.821 47.6337 119.891 48.7041 120.605 49.953L149.15 104.189L0.356889 252.983Z" fill="white" fill-opacity="0.2"/>
<path opacity="0.2" d="M124.173 309.539C117.75 313.107 109.722 313.107 103.299 309.539L0.17843 251.734L2.28882e-05 253.34L103.299 311.323C109.722 314.891 117.75 314.891 124.173 311.323L228.364 253.34L228.186 251.734L124.173 309.539Z" fill="#A52714"/>
<path d="M198.927 70.2917C198.213 66.3667 194.645 63.869 190.72 64.4042C189.293 64.5826 187.865 65.2962 186.795 66.3667L149.686 103.476L120.605 47.9905C118.821 44.4223 114.539 43.1734 110.971 44.9575C109.722 45.6712 108.651 46.7416 107.938 47.9905L92.0593 78.3201L52.0956 3.74493C50.3115 0.355146 45.8513 -1.07213 42.4615 0.890377C40.499 1.96083 39.0717 3.92334 38.7149 6.06426L2.28882e-05 253.34L103.299 311.323C109.722 314.891 117.75 314.891 124.173 311.323L228.364 253.34L198.927 70.2917Z" fill="url(#paint2_linear_0_12)"/>
</g>
<defs>
<linearGradient id="paint0_linear_0_12" x1="44.4987" y1="168.694" x2="30.226" y2="161.236" gradientUnits="userSpaceOnUse">
<stop stop-color="#A52714"/>
<stop offset="0.4" stop-color="#A52714" stop-opacity="0.5"/>
<stop offset="0.8" stop-color="#A52714" stop-opacity="0"/>
</linearGradient>
<linearGradient id="paint1_linear_0_12" x1="105.156" y1="147.93" x2="98.7693" y2="141.543" gradientUnits="userSpaceOnUse">
<stop stop-color="#A52714" stop-opacity="0.8"/>
<stop offset="0.5" stop-color="#A52714" stop-opacity="0.21"/>
<stop offset="1" stop-color="#A52714" stop-opacity="0"/>
</linearGradient>
<linearGradient id="paint2_linear_0_12" x1="-6.14811" y1="55.2564" x2="232.362" y2="293.767" gradientUnits="userSpaceOnUse">
<stop stop-color="white" stop-opacity="0.1"/>
<stop offset="1" stop-color="white" stop-opacity="0"/>
</linearGradient>
</defs>
</svg>
