<svg width="282" height="313" viewBox="0 0 282 313" fill="none" xmlns="http://www.w3.org/2000/svg">
<rect x="38.1" y="37" width="206" height="230" fill="white"/>
<path fill-rule="evenodd" clip-rule="evenodd" d="M225.909 93.9H225.797H90.9575L94.182 125.2H222.701C220.817 152.619 215.118 210.709 213.027 237.142L140.842 257.461V257.522L140.682 257.598L68.4496 232.182L63.501 172.15H98.9071L101.413 204.436L140.746 219.1H140.842L180.111 205.017L184.15 156.5H61.9207C61.3301 150.224 53.7316 68.7348 52.4067 62.6H229.07C228.08 72.929 227.074 83.5397 225.909 93.9ZM0 0L25.6367 284.015L140.682 313L256.031 283.435L281.7 0H0Z" fill="url(#paint0_linear_0_30)"/>
<defs>
<linearGradient id="paint0_linear_0_30" x1="140.85" y1="0" x2="140.85" y2="313" gradientUnits="userSpaceOnUse">
<stop stop-color="#1A6DFF"/>
<stop offset="1" stop-color="#C822FF"/>
</linearGradient>
</defs>
</svg>
