<svg width="155" height="155" viewBox="0 0 155 155" fill="none" xmlns="http://www.w3.org/2000/svg">
<path d="M123.516 19.375H31.4844C24.7031 19.375 19.375 24.7031 19.375 31.4844V123.516C19.375 130.297 24.7031 135.625 31.4844 135.625H123.516C130.297 135.625 135.625 130.297 135.625 123.516V31.4844C135.625 24.7031 130.297 19.375 123.516 19.375ZM130.781 123.516C130.781 127.633 127.633 130.781 123.516 130.781H31.4844C27.3672 130.781 24.2188 127.633 24.2188 123.516V31.4844C24.2188 27.3672 27.3672 24.2188 31.4844 24.2188H123.516C127.633 24.2188 130.781 27.3672 130.781 31.4844V123.516Z" fill="url(#paint0_linear_105_148)"/>
<path d="M113.102 100.508L111.164 99.7813C107.773 98.3281 106.32 97.3594 106.32 94.9375C106.32 93 107.773 91.5469 109.953 91.5469C111.891 91.5469 113.102 92.2734 114.313 93.9687C114.555 94.4531 115.281 94.6953 116.008 94.2109L120.125 91.5469C120.609 91.3047 120.852 90.3359 120.609 89.8516C118.188 86.2187 114.797 84.7656 110.195 84.7656C103.172 84.7656 98.8125 89.125 98.8125 94.9375C98.8125 101.234 102.445 104.383 108.258 106.562L110.195 107.289C113.828 108.742 115.523 109.711 115.523 112.375C115.523 114.555 113.828 116.25 110.68 116.25C107.289 116.25 105.594 114.313 103.898 111.891C103.414 111.406 102.688 111.164 102.203 111.648L98.086 114.313C97.6016 114.555 97.3594 115.281 97.6016 116.008C100.023 120.125 103.898 123.273 110.68 123.273C118.188 123.273 123.516 119.398 123.516 112.375C123.516 106.078 119.883 103.172 113.102 100.508Z" fill="url(#paint1_linear_105_148)"/>
<path d="M93.2422 84.7656H87.6719C86.9454 84.7656 86.461 85.25 86.461 85.9766V110.437C86.461 114.312 85.0079 115.281 82.3438 115.281C80.1641 115.281 78.4688 114.07 77.2579 112.375C77.0157 111.891 76.2891 111.648 75.5625 112.133L71.2032 114.797C70.7188 115.039 70.4766 116.008 70.7188 116.492C72.8985 120.125 77.0157 123.516 82.8282 123.516C89.8516 123.516 94.4532 119.883 94.4532 111.648V85.9766C94.4532 85.25 93.9688 84.7656 93.2422 84.7656Z" fill="url(#paint2_linear_105_148)"/>
<defs>
<linearGradient id="paint0_linear_105_148" x1="77.5" y1="21.901" x2="77.5" y2="133.23" gradientUnits="userSpaceOnUse">
<stop stop-color="#1A6DFF"/>
<stop offset="1" stop-color="#C822FF"/>
</linearGradient>
<linearGradient id="paint1_linear_105_148" x1="110.384" y1="86.4149" x2="110.384" y2="121.556" gradientUnits="userSpaceOnUse">
<stop stop-color="#6DC7FF"/>
<stop offset="1" stop-color="#E6ABFF"/>
</linearGradient>
<linearGradient id="paint2_linear_105_148" x1="82.54" y1="86.4149" x2="82.54" y2="121.556" gradientUnits="userSpaceOnUse">
<stop stop-color="#6DC7FF"/>
<stop offset="1" stop-color="#E6ABFF"/>
</linearGradient>
</defs>
</svg>
