<svg width="282" height="225" viewBox="0 0 282 225" fill="none" xmlns="http://www.w3.org/2000/svg">
<path d="M0 122.747V0.640625L105.75 61.6936V102.396L35.25 61.6936V143.098L0 122.747Z" fill="url(#paint0_linear_205_9)"/>
<path d="M105.75 61.6936L211.5 0.640625V122.747L141 163.449L105.75 143.098L176.25 102.396V61.6936L105.75 102.396V61.6936Z" fill="url(#paint1_linear_205_9)"/>
<path d="M105.75 143.098V183.8L176.25 224.502V183.8L105.75 143.098Z" fill="url(#paint2_linear_205_9)"/>
<path d="M176.25 224.502L282 163.449V82.0446L246.75 102.396V143.098L176.25 183.8V224.502ZM246.75 61.6936V20.9916L282 0.640625V41.3426L246.75 61.6936Z" fill="url(#paint3_linear_205_9)"/>
<defs>
<linearGradient id="paint0_linear_205_9" x1="52.875" y1="0.640625" x2="52.875" y2="143.098" gradientUnits="userSpaceOnUse">
<stop stop-color="#00B0FF"/>
<stop offset="1" stop-color="#C822FF"/>
</linearGradient>
<linearGradient id="paint1_linear_205_9" x1="158.625" y1="0.640625" x2="158.625" y2="163.449" gradientUnits="userSpaceOnUse">
<stop stop-color="#0081CB"/>
<stop offset="1" stop-color="#C822FF"/>
</linearGradient>
<linearGradient id="paint2_linear_205_9" x1="141" y1="143.098" x2="141" y2="224.502" gradientUnits="userSpaceOnUse">
<stop stop-color="#00B0FF"/>
<stop offset="1" stop-color="#C822FF"/>
</linearGradient>
<linearGradient id="paint3_linear_205_9" x1="229.125" y1="0.640625" x2="229.125" y2="224.502" gradientUnits="userSpaceOnUse">
<stop stop-color="#0081CB"/>
<stop offset="1" stop-color="#C822FF"/>
</linearGradient>
</defs>
</svg>
