<svg width="147" height="315" viewBox="0 0 147 315" fill="none" xmlns="http://www.w3.org/2000/svg">
<path d="M100.845 35.1089C87.6323 19.4232 76.2543 3.49252 73.9299 0.183817C73.6851 -0.0612722 73.318 -0.0612722 73.0734 0.183817C70.7488 3.49252 59.3709 19.4232 46.1577 35.1089C-67.2547 179.833 64.02 277.502 64.02 277.502L65.121 278.237C66.0997 293.309 68.5466 315 68.5466 315H73.4404H78.3341C78.3341 315 80.7811 293.432 81.7598 278.237L82.8609 277.379C82.9831 277.502 214.258 179.833 100.845 35.1089ZM73.4404 275.418C73.4404 275.418 67.568 270.394 65.9774 267.82V267.576L73.0734 109.983C73.0734 109.493 73.8075 109.493 73.8075 109.983L80.9033 267.576V267.82C79.3129 270.394 73.4404 275.418 73.4404 275.418Z" fill="url(#paint0_linear_0_25)"/>
<defs>
<linearGradient id="paint0_linear_0_25" x1="73.5" y1="0" x2="73.5" y2="315" gradientUnits="userSpaceOnUse">
<stop stop-color="#1A6DFF"/>
<stop offset="1" stop-color="#C822FF"/>
</linearGradient>
</defs>
</svg>
