<svg width="369" height="144" viewBox="0 0 369 144" fill="none" xmlns="http://www.w3.org/2000/svg">
<path d="M201.208 0.627583C196.363 0.829927 188.177 2.13071 188.177 2.67993C188.177 2.90829 193.947 5.79891 194.389 5.79891C194.794 5.79891 201.491 9.14047 202.98 10.0655C204.922 11.3084 206.313 12.4358 205.905 12.4358C205.645 12.4358 198.768 9.77352 196.161 8.65485C194.039 7.76165 185.22 5.13118 180.927 4.11657C178.603 3.57313 177.62 3.37079 173.669 2.64813C167.841 1.58438 160.988 1.52079 158.008 2.50071C153.738 3.88821 152.778 5.59368 152.778 11.8837C152.778 15.3524 152.949 16.818 153.703 19.9341C154.033 21.2898 154.958 24.27 155.389 25.2759C155.513 25.5939 155.918 26.5767 156.256 27.4439C156.606 28.3024 157.658 30.5253 158.583 32.3435C163.777 42.6544 171.556 51.2482 182.52 58.8101C185.977 61.1804 195.372 65.6753 199.141 66.7506C200.101 67.0108 200.419 67.5513 199.638 67.5513C198.771 67.5513 190.822 65.3602 189.194 64.6723C188.575 64.3978 187.947 64.1452 187.31 63.9149C181.653 61.6342 174.426 56.937 168.451 51.5951C161.904 45.7704 156.669 38.6198 153.096 30.6178C150.804 25.4436 149.246 19.4166 148.862 14.1644C148.636 11.161 148.399 10.4384 147.619 10.4731C147.358 10.4731 144.887 10.3834 142.164 10.236C134.758 9.91805 124.641 10.7332 114.625 12.4618C95.4746 15.7224 74.8124 23.2554 53.549 34.737C50.0128 36.6516 46.5191 38.6437 43.0705 40.7119C42.6658 40.9489 41.3881 41.7265 40.2261 42.4491C39.0727 43.1718 37.7084 43.9754 37.2112 44.2905C36.1127 44.9351 23.9548 53.1878 22.4979 54.2834C21.9545 54.6794 20.4427 55.8067 19.1679 56.7346C13.3953 61.0012 0.829766 71.2542 0.10711 72.2948C-0.242656 72.8152 0.309453 73.0753 1.05523 72.8152C1.43969 72.6648 2.4225 72.4625 3.21164 72.3527C4.02391 72.2255 6.11383 71.6849 7.85109 71.1097C9.61438 70.5547 11.5106 69.9795 12.0541 69.832C16.3553 68.8261 18.0955 68.4763 20.6103 68.1034C21.7521 67.9589 23.4345 67.6988 24.3826 67.5513C36.1705 65.8227 41.7957 65.3949 47.0451 65.7881C58.4486 66.7131 69.3578 68.6584 75.6016 70.8698C80.2757 72.5521 89.783 77.6916 93.9628 80.7731C96.3794 82.5941 104.146 90.3266 105.864 92.6622C107.193 94.5151 108.673 96.1309 109.023 96.1309C109.139 96.1309 109.283 90.2341 109.318 83.0538L109.396 70.0113L124.664 69.9245C136.678 69.8667 140.008 69.9563 140.213 70.2136C140.505 70.5894 141.204 71.8323 143.497 76.0642C145.676 80.14 146.749 82.1056 147.416 83.2792C147.763 83.9238 148.567 85.4154 149.246 86.6006C149.876 87.7857 151.061 89.9768 151.876 91.477C152.689 92.9802 153.354 94.2549 153.354 94.3098C153.354 94.57 154.55 96.1309 154.756 96.1309C154.868 96.1309 155.16 95.6887 155.363 95.2059C155.591 94.6856 156.201 93.5323 156.698 92.6622C157.218 91.795 158.143 90.1011 158.785 88.9159C159.43 87.7308 160.3 86.0831 160.762 85.3027C162.037 83.0191 163.37 80.5476 164.477 78.527C165.651 76.2943 166.859 74.0798 168.102 71.8844C168.474 71.1617 168.94 70.4044 169.084 70.2136C169.321 69.9534 172.741 69.8638 185.107 69.9188L200.803 70.0084L200.89 95.495C200.948 115.57 201.029 120.947 201.323 120.947C201.491 120.912 202.653 120.245 203.85 119.409C205.532 118.236 206.255 117.513 207.035 116.18C208.807 113.154 213.831 108.39 217.196 106.537C221.285 104.276 225.683 102.627 230.25 101.64C234.889 100.658 236.257 100.513 246.793 100.137C266.021 99.4725 268.866 99.3569 269.013 99.2123C269.103 99.1343 268.846 98.377 268.461 97.5069C268.056 96.6715 267.363 95.1134 266.868 94.0757C265.039 90.1242 265.039 88.8003 266.958 86.8607C268.259 85.5021 271.621 84.317 277.402 83.1665C278.353 82.9641 279.55 82.704 280.032 82.5363C280.532 82.3889 281.139 82.2762 281.4 82.2762C282.134 82.2762 287.903 80.8627 289.123 80.4002C289.962 80.0533 294.488 79.0705 299.885 78.0299C302.232 77.5674 308.332 76.3591 313.379 75.3416C316.573 74.7114 319.906 74.0437 320.773 73.8731C321.643 73.7055 322.897 73.4453 323.53 73.3326C324.172 73.1881 325.008 73.0059 325.415 72.9481C325.82 72.8701 327.855 72.4625 329.919 72.0347C331.466 71.6952 333.022 71.3935 334.584 71.1299C336.041 70.9941 346.982 68.3636 349.5 67.5513C353.509 66.2506 354.694 65.7331 357.224 64.0392C359.944 62.1892 360.701 61.1833 363.398 55.8067C366.393 49.8347 366.82 48.8288 367.667 46.311C368.968 42.3046 368.887 40.7784 367.228 39.096C366.063 37.9456 363.568 36.7604 361.75 36.5002C360.386 36.3297 360.204 36.3846 359.539 37.1073C359.131 37.5409 358.782 38.0583 358.782 38.2375C358.782 38.4977 358.319 39.7638 357.018 42.8798C356.894 43.1978 356.637 43.9754 356.432 44.6056C356.264 45.2502 355.911 46.1434 355.709 46.629C355.336 47.4384 355.304 47.2938 355.449 45.0478C355.596 42.822 355.969 40.9489 356.816 38.1132C356.963 37.5727 357.166 36.6477 357.247 36.0695L357.391 35.0289L354.376 33.8235C351.24 32.5227 348.537 31.3954 346.982 30.6959C346.45 30.5051 345.152 29.9848 344.08 29.5772C342.973 29.1725 341.64 28.6522 341.088 28.392C340.082 27.9467 339.065 27.5256 338.039 27.1288C336.096 26.3715 329.309 24.0677 323.528 22.2495C319.668 21.0659 315.803 19.9 311.933 18.7518C310.571 18.4053 309.216 18.0314 307.869 17.6302C307.407 17.5059 306.265 17.1909 305.395 16.9654C300.29 15.5548 298.96 15.2021 297.127 14.6818C296.118 14.391 295.102 14.1212 294.081 13.8724C293.529 13.7366 292.028 13.3868 290.751 13.0688C288.513 12.5167 279.142 10.3603 274.06 9.1954L270.435 8.36001C269.794 8.21547 268.643 7.98711 267.828 7.83969C267.039 7.69516 265.388 7.37719 264.192 7.11704C263.007 6.89446 260.454 6.39438 258.535 6.0793C256.627 5.7411 254.335 5.33641 253.465 5.18899C245.449 3.74368 244.908 3.66274 230.542 2.0729C221.691 1.06696 209.787 0.220005 206.888 0.367427C206.425 0.367427 203.853 0.480161 201.208 0.627583ZM167.662 14.8523C175.328 17.3383 182.78 20.7145 187.885 24.0098C191.949 26.6316 196.996 30.8202 198.364 32.6933L198.939 33.4738L197.843 33.0431C197.236 32.7829 195.959 32.2337 194.999 31.7683C189.894 29.398 189.342 29.2043 189.342 29.7246C189.342 29.8605 190.527 31.7683 191.949 33.9016C193.406 36.0695 194.557 37.9773 194.557 38.1508C194.557 38.2953 194.016 38.0583 193.337 37.5958C190.729 35.8094 184.607 33.2367 184.26 33.757C184.171 33.9016 186.052 36.295 188.472 39.096C190.842 41.897 192.819 44.2905 192.819 44.4726C192.819 44.9004 192.357 44.8426 190.154 44.0303C187.885 43.2296 187.31 43.14 187.31 43.6921C187.31 44.065 192.209 50.6701 194.152 52.9508C194.704 53.5838 195.143 54.1938 195.143 54.3383C195.143 55.0291 188.348 50.6152 183.538 46.8082C176.658 41.3218 170.009 33.9594 166.512 27.8746C163.63 22.9027 162.647 20.2289 162.647 17.2805C162.647 15.5548 162.728 15.205 163.37 14.5922C163.745 14.1991 164.217 13.8695 164.387 13.8695C164.555 13.8695 166.012 14.3118 167.662 14.8523ZM259.269 25.1285C262.047 25.6257 265.851 26.2819 267.681 26.6085C269.51 26.9265 271.745 27.2965 272.615 27.4439C273.485 27.6145 274.725 27.8399 275.37 27.9845C276.006 28.1319 277.257 28.392 278.127 28.5944C280.995 29.2303 281.694 29.3749 286.392 30.4704C291.439 31.6556 292.546 31.881 294.081 32.1961C295.39 32.4563 296.688 32.9534 296.688 33.1789C296.688 33.2714 295.74 33.8235 294.578 34.4219C292.196 35.607 291.699 35.6966 281.897 36.0695C275.225 36.3528 271.655 36.2719 268.403 35.7516C261.842 34.7398 258.457 32.8985 255.815 28.9123C254.89 27.5566 254.28 27.1491 252.155 26.6085C251.375 26.3715 250.181 26.0535 249.548 25.8512C248.903 25.6488 247.808 25.3309 247.108 25.1285C245.018 24.588 246.206 24.27 250.418 24.27C253.317 24.27 255.352 24.4637 259.269 25.1285ZM294.17 65.4527C293.933 65.5093 293.685 65.5093 293.448 65.4527C293.245 65.3602 293.39 65.3053 293.797 65.3053C294.194 65.3053 294.341 65.3631 294.173 65.4498L294.17 65.4527ZM292.919 65.7909C292.919 65.9355 292.581 66.1378 292.138 66.2303C291.236 66.4558 287.701 67.4733 286.539 67.8433C286.132 67.9907 284.822 68.3983 283.637 68.7394C280.645 69.6066 273.395 71.9653 271.453 72.7227C267.793 74.1102 259.202 78.6629 257.994 79.8827C256.188 81.6431 255.633 83.5394 255.904 87.1758C255.982 88.7107 256.188 90.6445 256.367 91.477C256.717 93.2981 256.511 93.7924 255.815 92.8906C255.115 91.9973 253.635 88.7685 253.204 87.1758C252.967 86.4647 252.71 85.505 252.563 85.0425C252.042 83.4035 252.245 81.461 253.06 80.2874C254.155 78.6051 258.107 75.9284 262.746 73.7055C264.949 72.6331 271.36 70.4391 277.257 68.7134C278.442 68.3665 279.752 67.9589 280.16 67.8462C284.336 66.4327 292.919 65.077 292.919 65.7909ZM201.153 67.7306C201.06 67.8115 200.803 67.8462 200.598 67.7537C200.361 67.6756 200.453 67.586 200.769 67.586C201.095 67.5513 201.266 67.6438 201.153 67.7306Z" fill="url(#paint0_linear_204_5)"/>
<path d="M140.302 123.546V143.745H154.756C165.607 143.745 169.287 143.659 169.547 143.398C169.986 142.965 170.079 103.346 169.636 103.346C169.492 103.346 169.29 103.571 169.197 103.832C169.081 104.092 165.922 109.026 162.15 114.796C156.178 123.919 154.519 126.141 154.519 125.014C154.519 124.812 144.627 109.376 142.098 105.647C141.759 105.164 141.46 104.655 141.204 104.124C140.967 103.684 140.684 103.343 140.539 103.343C140.415 103.343 140.302 112.434 140.302 123.546Z" fill="url(#paint1_linear_204_5)"/>
<defs>
<linearGradient id="paint0_linear_204_5" x1="184.283" y1="0.350677" x2="184.283" y2="120.947" gradientUnits="userSpaceOnUse">
<stop stop-color="#1A6DFF"/>
<stop offset="1" stop-color="#C822FF"/>
</linearGradient>
<linearGradient id="paint1_linear_204_5" x1="155.114" y1="103.343" x2="155.114" y2="143.745" gradientUnits="userSpaceOnUse">
<stop stop-color="#1A6DFF"/>
<stop offset="1" stop-color="#C822FF"/>
</linearGradient>
</defs>
</svg>
