<svg width="314" height="314" viewBox="0 0 314 314" fill="none" xmlns="http://www.w3.org/2000/svg">
<mask id="mask0_0_43" style="mask-type:alpha" maskUnits="userSpaceOnUse" x="0" y="0" width="314" height="314">
<path d="M157 314C243.709 314 314 243.709 314 157C314 70.2913 243.709 0 157 0C70.2913 0 0 70.2913 0 157C0 243.709 70.2913 314 157 314Z" fill="black"/>
</mask>
<g mask="url(#mask0_0_43)">
<path d="M157 314C243.709 314 314 243.709 314 157C314 70.2913 243.709 0 157 0C70.2913 0 0 70.2913 0 157C0 243.709 70.2913 314 157 314Z" fill="url(#paint0_linear_0_43)"/>
<path d="M260.808 274.785L120.614 94.2H94.2V219.748H115.332V121.036L244.22 287.563C250.036 283.671 255.577 279.399 260.808 274.785Z" fill="url(#paint1_linear_0_43)"/>
<path d="M221.544 94.2H200.611V219.8H221.544V94.2Z" fill="url(#paint2_linear_0_43)"/>
</g>
<defs>
<linearGradient id="paint0_linear_0_43" x1="157" y1="0" x2="157" y2="314" gradientUnits="userSpaceOnUse">
<stop stop-color="#1A6DFF"/>
<stop offset="1" stop-color="#C822FF"/>
</linearGradient>
<linearGradient id="paint1_linear_0_43" x1="190.144" y1="203.228" x2="252.072" y2="279.983" gradientUnits="userSpaceOnUse">
<stop stop-color="white"/>
<stop offset="1" stop-color="white" stop-opacity="0"/>
</linearGradient>
<linearGradient id="paint2_linear_0_43" x1="211.078" y1="94.2" x2="210.727" y2="186.437" gradientUnits="userSpaceOnUse">
<stop stop-color="white"/>
<stop offset="1" stop-color="white" stop-opacity="0"/>
</linearGradient>
</defs>
</svg>
