<svg width="277" height="314" viewBox="0 0 277 314" fill="none" xmlns="http://www.w3.org/2000/svg">
<path d="M138.502 314C134.201 314 130.185 312.846 126.458 310.826L88.3196 288.037C82.5852 284.864 85.4524 283.711 87.173 283.134C94.9158 280.537 96.3486 279.96 104.378 275.345C105.238 274.768 106.386 275.056 107.246 275.632L136.495 293.23C137.642 293.807 139.075 293.807 139.935 293.23L254.353 226.593C255.492 226.016 256.077 224.862 256.077 223.421V90.4355C256.077 88.9925 255.492 87.8387 254.353 87.2618L139.935 20.9138C138.789 20.3369 137.354 20.3369 136.495 20.9138L22.0802 87.2618C20.9322 87.8387 20.3596 89.2817 20.3596 90.4355V223.421C20.3596 224.574 20.9322 226.016 22.0802 226.593L53.3362 244.766C70.2546 253.421 80.8646 243.325 80.8646 233.228V101.973C80.8646 100.243 82.2974 98.5121 84.3058 98.5121H98.9296C100.65 98.5121 102.371 99.9551 102.371 101.973V233.228C102.371 256.016 90.0402 269.286 68.534 269.286C61.9393 269.286 56.7774 269.286 42.1522 262.074L12.0428 244.766C4.58778 240.44 0 232.362 0 223.708V90.7232C0 82.0697 4.58778 73.9931 12.0428 69.6656L126.458 3.02985C133.627 -1.00995 143.376 -1.00995 150.545 3.02985L264.965 69.6656C272.414 73.9931 277 82.0697 277 90.7232V223.708C277 232.362 272.414 240.44 264.965 244.766L150.545 311.403C147.104 312.846 142.804 314 138.502 314Z" fill="url(#paint0_linear_0_3)"/>
<path d="M174.217 223C124.272 223 114 199.757 114 180C114 178.257 115.426 176.514 117.423 176.514H132.262C133.975 176.514 135.402 177.676 135.402 179.419C137.684 194.817 144.248 202.371 174.501 202.371C198.47 202.371 208.746 196.852 208.746 183.778C208.746 176.222 205.883 170.702 168.503 166.926C137.399 163.729 117.994 156.757 117.994 131.479C117.994 107.946 137.399 94 169.931 94C206.464 94 224.437 106.784 226.719 134.676C226.719 135.547 226.436 136.419 225.869 137.29C225.287 137.871 224.437 138.453 223.572 138.453H208.448C207.031 138.453 205.599 137.29 205.316 135.838C201.885 119.859 193.041 114.628 169.646 114.628C143.392 114.628 140.252 123.926 140.252 130.898C140.252 139.324 143.962 141.94 179.348 146.588C214.444 151.236 231 157.919 231 182.905C231 208.472 210.163 223 174.217 223Z" fill="url(#paint1_linear_0_3)"/>
<defs>
<linearGradient id="paint0_linear_0_3" x1="138.5" y1="0" x2="138.5" y2="314" gradientUnits="userSpaceOnUse">
<stop stop-color="#1A6DFF"/>
<stop offset="1" stop-color="#C822FF"/>
</linearGradient>
<linearGradient id="paint1_linear_0_3" x1="172.5" y1="94" x2="172.5" y2="223" gradientUnits="userSpaceOnUse">
<stop stop-color="#1A6DFF"/>
<stop offset="1" stop-color="#C822FF"/>
</linearGradient>
</defs>
</svg>
