<svg width="362" height="313" viewBox="0 0 362 313" fill="none" xmlns="http://www.w3.org/2000/svg">
<path d="M212.827 156.21C212.827 138.942 198.389 124.941 180.577 124.941C162.767 124.941 148.327 138.942 148.327 156.21C148.327 173.48 162.767 187.48 180.577 187.48C198.389 187.48 212.827 173.48 212.827 156.21Z" fill="url(#paint0_linear_0_50)"/>
<path fill-rule="evenodd" clip-rule="evenodd" d="M285.316 98.158C292.126 71.3252 300.687 21.5666 270.509 4.69691C240.472 -12.0993 201.384 20.0853 180.744 39.404C160.165 20.2778 119.979 -11.7692 89.8265 5.15413C59.8012 22.0067 69.0603 70.9402 76.0217 97.9413C48.0131 105.654 0 122.267 0 156.21C0 190.056 47.9632 208.131 75.806 215.836C68.8188 242.987 60.0233 291.221 90.0871 308.037C120.352 324.957 160.413 293.672 181.244 274.142C202.016 293.575 240.728 325.064 270.771 308.201C300.909 291.286 293.06 242.195 286.098 215.037C313.088 207.314 361.154 189.633 361.154 156.21C361.154 122.594 312.883 105.846 285.316 98.158ZM281.895 200.645C277.324 186.615 271.154 171.696 263.607 156.285C270.811 141.236 276.741 126.51 281.185 112.57C301.394 118.251 345.727 131.235 345.727 156.21C345.727 181.42 303.184 194.526 281.895 200.645ZM263.04 295.255C240.625 307.835 207.328 277.722 191.987 263.412C202.164 252.62 212.334 240.073 222.26 226.141C239.721 224.64 256.215 222.184 271.174 218.832C276.073 238.041 285.555 282.618 263.04 295.255ZM97.7959 295.076C75.378 282.543 85.6245 239.5 90.7648 219.501C105.557 222.674 121.933 224.957 139.434 226.333C149.425 239.965 159.89 252.496 170.436 263.47C157.407 275.69 120.318 307.667 97.7959 295.076ZM15.4272 156.21C15.4272 130.906 59.4949 118.017 80.1646 112.35C84.6847 126.602 90.6129 141.505 97.7671 156.575C90.5202 171.868 84.5072 187.007 79.9456 201.428C60.2367 195.957 15.4272 181.529 15.4272 156.21ZM97.5561 18.1003C120.066 5.46737 154.992 36.2337 169.934 50.0815C159.442 61.0054 149.073 73.4418 139.168 86.9959C122.183 88.5224 105.923 90.9734 90.9757 94.2575C85.3677 72.4801 75.0709 30.7196 97.5561 18.1003ZM233.297 103.255C244.82 104.665 255.861 106.54 266.227 108.835C263.115 118.507 259.236 128.62 254.668 138.988C248.045 126.805 240.937 114.866 233.297 103.255ZM180.749 60.7713C187.865 68.2457 194.992 76.5923 202.003 85.6476C187.782 84.9951 173.538 84.9927 159.317 85.638C166.334 76.6667 173.522 68.3325 180.749 60.7713ZM106.619 138.977C102.126 128.645 98.2818 118.487 95.1426 108.677C105.447 106.442 116.436 104.614 127.885 103.227C120.223 114.813 113.127 126.747 106.619 138.977ZM128.213 210.26C116.387 208.98 105.231 207.246 94.93 205.072C98.1188 195.089 102.047 184.712 106.636 174.158C113.234 186.515 120.439 198.565 128.213 210.26ZM181.176 252.705C173.864 245.055 166.57 236.593 159.447 227.492C173.749 228.036 188.078 228.037 202.379 227.419C195.346 236.686 188.244 245.16 181.176 252.705ZM254.815 173.621C259.642 184.29 263.711 194.61 266.943 204.424C256.471 206.741 245.166 208.607 233.254 209.993C240.95 198.161 248.172 186.038 254.815 173.621ZM213.65 211.806C191.774 213.322 169.762 213.305 147.878 211.93C135.444 194.319 124.374 175.798 114.819 156.57C124.328 137.382 135.317 118.897 147.693 101.313C169.592 99.7085 191.626 99.7037 213.525 101.323C225.795 118.905 236.766 137.342 246.496 156.357C236.882 175.535 225.836 194.058 213.65 211.806ZM262.803 17.6556C285.319 30.2471 275.297 74.9666 270.378 94.4128C255.395 91.0601 239.124 88.5657 222.089 87.0152C212.165 73.3147 201.883 60.8566 191.561 50.0738C206.694 35.9277 240.506 5.18724 262.803 17.6556Z" fill="url(#paint1_linear_0_50)"/>
<defs>
<linearGradient id="paint0_linear_0_50" x1="180.577" y1="124.941" x2="180.577" y2="187.48" gradientUnits="userSpaceOnUse">
<stop stop-color="#1A6DFF"/>
<stop offset="1" stop-color="#C822FF"/>
</linearGradient>
<linearGradient id="paint1_linear_0_50" x1="180.577" y1="0" x2="180.577" y2="313" gradientUnits="userSpaceOnUse">
<stop stop-color="#1A6DFF"/>
<stop offset="1" stop-color="#C822FF"/>
</linearGradient>
</defs>
</svg>
