<svg width="366" height="349" viewBox="0 0 366 349" fill="none" xmlns="http://www.w3.org/2000/svg">
<path d="M253.599 243.243C267.106 241.845 277.352 230.202 276.886 216.228C276.422 202.256 264.777 191.077 250.804 191.077H249.874C235.434 191.543 224.256 203.652 224.723 218.091C225.189 225.078 227.982 231.132 232.174 235.324C216.339 266.531 192.12 289.354 155.792 308.45C131.107 321.491 105.491 326.149 79.8752 322.89C58.916 320.095 42.6147 310.78 32.3667 295.408C17.4636 272.586 16.0668 247.9 28.6423 223.215C37.4921 205.515 51.463 192.474 60.3128 185.953C58.4499 179.898 55.6549 169.652 54.2581 162.2C-13.2761 211.105 -6.28921 277.244 14.2039 308.45C29.5731 331.739 60.7789 346.178 95.2443 346.178C104.559 346.178 113.873 345.246 123.189 342.918C182.806 331.273 227.984 295.874 253.599 243.243ZM335.572 185.488C300.174 144.034 248.011 121.212 188.394 121.212H180.943C176.751 112.829 167.901 107.239 158.121 107.239H157.188C142.751 107.705 131.574 119.814 132.039 134.254C132.505 148.226 144.148 159.405 158.121 159.405H159.051C169.298 158.939 178.148 152.418 181.873 143.568H190.257C225.655 143.568 259.188 153.815 289.463 173.843C312.75 189.214 329.517 209.242 338.832 233.461C346.749 253.024 346.283 272.12 337.9 288.423C324.859 313.108 302.969 326.616 274.093 326.616C255.462 326.616 237.764 321.025 228.448 316.834C223.326 321.491 214.01 328.943 207.489 333.602C227.518 342.917 248.011 348.041 267.572 348.041C312.284 348.041 345.352 323.354 357.928 298.669C371.434 271.654 370.502 225.078 335.572 185.488ZM98.9701 251.159C99.4362 265.133 111.08 276.311 125.052 276.311H125.984C140.422 275.846 151.6 263.735 151.134 249.297C150.669 235.323 139.024 224.146 125.052 224.146H124.121C123.189 224.146 121.791 224.146 120.861 224.61C101.765 192.938 93.8475 158.473 96.6426 121.211C98.504 93.2648 107.82 69.0444 124.121 49.0159C137.627 31.7825 163.709 23.3988 181.409 22.9341C230.777 22.002 251.735 83.4828 253.133 108.169C259.188 109.566 269.435 112.827 276.421 115.156C270.831 39.7029 224.256 0.578125 179.546 0.578125C137.627 0.578125 98.9701 30.8532 83.5995 75.5667C62.1757 135.185 76.148 192.474 102.23 237.653C99.9023 240.913 98.504 246.035 98.9701 251.159Z" fill="url(#paint0_linear_205_7)"/>
<defs>
<linearGradient id="paint0_linear_205_7" x1="183" y1="0.578125" x2="183" y2="348.041" gradientUnits="userSpaceOnUse">
<stop stop-color="#1A6DFF"/>
<stop offset="1" stop-color="#C822FF"/>
</linearGradient>
</defs>
</svg>
