<svg width="361" height="216" viewBox="0 0 361 216" fill="none" xmlns="http://www.w3.org/2000/svg">
<path d="M90.25 72C102.283 24 132.367 0 180.5 0C252.7 0 261.725 54 297.825 63C321.892 69 342.95 60 361 36C348.967 84 318.883 108 270.75 108C198.55 108 189.525 54 153.425 45C129.358 39 108.3 48 90.25 72ZM0 180C12.0333 132 42.1167 108 90.25 108C162.45 108 171.475 162 207.575 171C231.642 177 252.7 168 270.75 144C258.717 192 228.633 216 180.5 216C108.3 216 99.275 162 63.175 153C39.1083 147 18.05 156 0 180Z" fill="url(#paint0_linear_0_53)"/>
<defs>
<linearGradient id="paint0_linear_0_53" x1="180.5" y1="0" x2="180.5" y2="216" gradientUnits="userSpaceOnUse">
<stop stop-color="#1A6DFF"/>
<stop offset="1" stop-color="#C822FF"/>
</linearGradient>
</defs>
</svg>
