<svg width="314" height="314" viewBox="0 0 314 314" fill="none" xmlns="http://www.w3.org/2000/svg">
<path d="M283.336 0H30.6641C13.7288 0 0 13.7288 0 30.6641V283.336C0 300.271 13.7288 314 30.6641 314H283.336C300.271 314 314 300.271 314 283.336V30.6641C314 13.7288 300.271 0 283.336 0Z" fill="url(#paint0_linear_0_6)"/>
<path fill-rule="evenodd" clip-rule="evenodd" d="M194.373 249.866V280.567C199.364 283.126 205.266 285.044 212.081 286.323C218.896 287.603 226.078 288.242 233.629 288.242C240.988 288.242 247.978 287.539 254.601 286.131C261.223 284.724 267.031 282.406 272.022 279.175C277.012 275.946 280.964 271.724 283.875 266.511C286.786 261.298 288.242 254.855 288.242 247.179C288.242 241.614 287.411 236.738 285.747 232.548C284.083 228.359 281.684 224.633 278.548 221.371C275.413 218.109 271.654 215.183 267.27 212.592C262.887 210.002 257.944 207.555 252.441 205.253C248.41 203.59 244.795 201.975 241.595 200.408C238.396 198.84 235.677 197.242 233.437 195.611C231.197 193.98 229.47 192.253 228.254 190.43C227.039 188.607 226.43 186.544 226.43 184.241C226.43 182.131 226.974 180.228 228.062 178.533C229.15 176.838 230.686 175.383 232.669 174.168C234.653 172.953 237.084 172.009 239.963 171.337C242.843 170.666 246.042 170.33 249.562 170.33C252.121 170.33 254.825 170.522 257.672 170.906C260.519 171.289 263.383 171.881 266.263 172.68C269.142 173.48 271.941 174.488 274.661 175.703C277.38 176.918 279.892 178.325 282.195 179.924V151.238C277.524 149.447 272.421 148.12 266.887 147.256C261.352 146.393 255.001 145.961 247.834 145.961C240.539 145.961 233.629 146.745 227.102 148.312C220.576 149.879 214.833 152.325 209.873 155.651C204.914 158.977 200.996 163.214 198.116 168.363C195.237 173.512 193.797 179.668 193.797 186.832C193.797 195.978 196.436 203.782 201.716 210.242C206.994 216.702 215.008 222.17 225.759 226.648C229.982 228.375 233.917 230.069 237.564 231.733C241.211 233.396 244.363 235.123 247.018 236.914C249.674 238.704 251.769 240.655 253.305 242.766C254.841 244.876 255.609 247.275 255.609 249.962C255.609 251.945 255.129 253.783 254.169 255.478C253.209 257.173 251.753 258.644 249.802 259.891C247.85 261.139 245.419 262.114 242.507 262.817C239.595 263.521 236.189 263.873 232.285 263.873C225.63 263.873 219.04 262.706 212.513 260.371C205.986 258.037 199.939 254.535 194.373 249.866ZM142.76 174.222H182.145V149.027H72.3672V174.222H111.56V286.402H142.76V174.222Z" fill="white"/>
<defs>
<linearGradient id="paint0_linear_0_6" x1="157" y1="0" x2="157" y2="314" gradientUnits="userSpaceOnUse">
<stop stop-color="#1A6DFF"/>
<stop offset="1" stop-color="#C822FF"/>
</linearGradient>
</defs>
</svg>
